<svg xmlns="http://www.w3.org/2000/svg" viewBox="0 0 192 128" shape-rendering="crispEdges">
  <!-- blacksmith sprite sheet: 6 cols x 4 rows of 32x32 frames -->
  <!-- Simplified: same pose structure, unique colors -->

  <!-- ROW 0: DOWN -->
  <!-- Walk 0 --><rect x="11" y="2" width="10" height="4" fill="#CC3333"/><rect x="12" y="6" width="8" height="8" fill="#F5D0A9"/><rect x="14" y="8" width="2" height="2" fill="#333"/><rect x="18" y="8" width="2" height="2" fill="#333"/><rect x="11" y="14" width="10" height="10" fill="#555555"/><rect x="12" y="24" width="4" height="6" fill="#555555"/><rect x="18" y="24" width="4" height="6" fill="#555555"/>
  <!-- Walk 1 --><rect x="43" y="2" width="10" height="4" fill="#CC3333"/><rect x="44" y="6" width="8" height="8" fill="#F5D0A9"/><rect x="46" y="8" width="2" height="2" fill="#333"/><rect x="50" y="8" width="2" height="2" fill="#333"/><rect x="43" y="14" width="10" height="10" fill="#555555"/><rect x="44" y="24" width="4" height="7" fill="#555555"/><rect x="48" y="24" width="4" height="5" fill="#555555"/>
  <!-- Walk 2 --><rect x="75" y="2" width="10" height="4" fill="#CC3333"/><rect x="76" y="6" width="8" height="8" fill="#F5D0A9"/><rect x="78" y="8" width="2" height="2" fill="#333"/><rect x="82" y="8" width="2" height="2" fill="#333"/><rect x="75" y="14" width="10" height="10" fill="#555555"/><rect x="76" y="24" width="4" height="6" fill="#555555"/><rect x="82" y="24" width="4" height="6" fill="#555555"/>
  <!-- Walk 3 --><rect x="107" y="2" width="10" height="4" fill="#CC3333"/><rect x="108" y="6" width="8" height="8" fill="#F5D0A9"/><rect x="110" y="8" width="2" height="2" fill="#333"/><rect x="114" y="8" width="2" height="2" fill="#333"/><rect x="107" y="14" width="10" height="10" fill="#555555"/><rect x="108" y="24" width="4" height="5" fill="#555555"/><rect x="112" y="24" width="4" height="7" fill="#555555"/>
  <!-- Idle 0 --><rect x="139" y="2" width="10" height="4" fill="#CC3333"/><rect x="140" y="6" width="8" height="8" fill="#F5D0A9"/><rect x="142" y="8" width="2" height="2" fill="#333"/><rect x="146" y="8" width="2" height="2" fill="#333"/><rect x="139" y="14" width="10" height="10" fill="#555555"/><rect x="140" y="24" width="4" height="6" fill="#555555"/><rect x="146" y="24" width="4" height="6" fill="#555555"/>
  <!-- Idle 1 --><rect x="171" y="3" width="10" height="4" fill="#CC3333"/><rect x="172" y="7" width="8" height="8" fill="#F5D0A9"/><rect x="174" y="9" width="2" height="2" fill="#333"/><rect x="178" y="9" width="2" height="2" fill="#333"/><rect x="171" y="15" width="10" height="10" fill="#555555"/><rect x="172" y="25" width="4" height="5" fill="#555555"/><rect x="178" y="25" width="4" height="5" fill="#555555"/>

  <!-- ROW 1: LEFT -->
  <rect x="11" y="34" width="10" height="4" fill="#CC3333"/><rect x="12" y="38" width="8" height="8" fill="#F5D0A9"/><rect x="13" y="40" width="2" height="2" fill="#333"/><rect x="11" y="46" width="10" height="10" fill="#555555"/><rect x="12" y="56" width="4" height="6" fill="#555555"/><rect x="18" y="56" width="4" height="6" fill="#555555"/>
  <rect x="43" y="34" width="10" height="4" fill="#CC3333"/><rect x="44" y="38" width="8" height="8" fill="#F5D0A9"/><rect x="45" y="40" width="2" height="2" fill="#333"/><rect x="43" y="46" width="10" height="10" fill="#555555"/><rect x="43" y="56" width="4" height="7" fill="#555555"/><rect x="49" y="56" width="4" height="5" fill="#555555"/>
  <rect x="75" y="34" width="10" height="4" fill="#CC3333"/><rect x="76" y="38" width="8" height="8" fill="#F5D0A9"/><rect x="77" y="40" width="2" height="2" fill="#333"/><rect x="75" y="46" width="10" height="10" fill="#555555"/><rect x="76" y="56" width="4" height="6" fill="#555555"/><rect x="82" y="56" width="4" height="6" fill="#555555"/>
  <rect x="107" y="34" width="10" height="4" fill="#CC3333"/><rect x="108" y="38" width="8" height="8" fill="#F5D0A9"/><rect x="109" y="40" width="2" height="2" fill="#333"/><rect x="107" y="46" width="10" height="10" fill="#555555"/><rect x="108" y="56" width="4" height="5" fill="#555555"/><rect x="114" y="56" width="4" height="7" fill="#555555"/>
  <rect x="139" y="34" width="10" height="4" fill="#CC3333"/><rect x="140" y="38" width="8" height="8" fill="#F5D0A9"/><rect x="141" y="40" width="2" height="2" fill="#333"/><rect x="139" y="46" width="10" height="10" fill="#555555"/><rect x="140" y="56" width="4" height="6" fill="#555555"/><rect x="146" y="56" width="4" height="6" fill="#555555"/>
  <rect x="171" y="35" width="10" height="4" fill="#CC3333"/><rect x="172" y="39" width="8" height="8" fill="#F5D0A9"/><rect x="173" y="41" width="2" height="2" fill="#333"/><rect x="171" y="47" width="10" height="10" fill="#555555"/><rect x="172" y="57" width="4" height="5" fill="#555555"/><rect x="178" y="57" width="4" height="5" fill="#555555"/>

  <!-- ROW 2: RIGHT -->
  <rect x="11" y="66" width="10" height="4" fill="#CC3333"/><rect x="12" y="70" width="8" height="8" fill="#F5D0A9"/><rect x="18" y="72" width="2" height="2" fill="#333"/><rect x="11" y="78" width="10" height="10" fill="#555555"/><rect x="12" y="88" width="4" height="6" fill="#555555"/><rect x="18" y="88" width="4" height="6" fill="#555555"/>
  <rect x="43" y="66" width="10" height="4" fill="#CC3333"/><rect x="44" y="70" width="8" height="8" fill="#F5D0A9"/><rect x="50" y="72" width="2" height="2" fill="#333"/><rect x="43" y="78" width="10" height="10" fill="#555555"/><rect x="44" y="88" width="4" height="7" fill="#555555"/><rect x="48" y="88" width="4" height="5" fill="#555555"/>
  <rect x="75" y="66" width="10" height="4" fill="#CC3333"/><rect x="76" y="70" width="8" height="8" fill="#F5D0A9"/><rect x="82" y="72" width="2" height="2" fill="#333"/><rect x="75" y="78" width="10" height="10" fill="#555555"/><rect x="76" y="88" width="4" height="6" fill="#555555"/><rect x="82" y="88" width="4" height="6" fill="#555555"/>
  <rect x="107" y="66" width="10" height="4" fill="#CC3333"/><rect x="108" y="70" width="8" height="8" fill="#F5D0A9"/><rect x="114" y="72" width="2" height="2" fill="#333"/><rect x="107" y="78" width="10" height="10" fill="#555555"/><rect x="108" y="88" width="4" height="5" fill="#555555"/><rect x="112" y="88" width="4" height="7" fill="#555555"/>
  <rect x="139" y="66" width="10" height="4" fill="#CC3333"/><rect x="140" y="70" width="8" height="8" fill="#F5D0A9"/><rect x="146" y="72" width="2" height="2" fill="#333"/><rect x="139" y="78" width="10" height="10" fill="#555555"/><rect x="140" y="88" width="4" height="6" fill="#555555"/><rect x="146" y="88" width="4" height="6" fill="#555555"/>
  <rect x="171" y="67" width="10" height="4" fill="#CC3333"/><rect x="172" y="71" width="8" height="8" fill="#F5D0A9"/><rect x="178" y="73" width="2" height="2" fill="#333"/><rect x="171" y="79" width="10" height="10" fill="#555555"/><rect x="172" y="89" width="4" height="5" fill="#555555"/><rect x="178" y="89" width="4" height="5" fill="#555555"/>

  <!-- ROW 3: UP -->
  <rect x="11" y="98" width="10" height="4" fill="#CC3333"/><rect x="12" y="102" width="8" height="8" fill="#F5D0A9"/><rect x="11" y="110" width="10" height="10" fill="#555555"/><rect x="12" y="120" width="4" height="6" fill="#555555"/><rect x="18" y="120" width="4" height="6" fill="#555555"/>
  <rect x="43" y="98" width="10" height="4" fill="#CC3333"/><rect x="44" y="102" width="8" height="8" fill="#F5D0A9"/><rect x="43" y="110" width="10" height="10" fill="#555555"/><rect x="44" y="120" width="4" height="7" fill="#555555"/><rect x="48" y="120" width="4" height="5" fill="#555555"/>
  <rect x="75" y="98" width="10" height="4" fill="#CC3333"/><rect x="76" y="102" width="8" height="8" fill="#F5D0A9"/><rect x="75" y="110" width="10" height="10" fill="#555555"/><rect x="76" y="120" width="4" height="6" fill="#555555"/><rect x="82" y="120" width="4" height="6" fill="#555555"/>
  <rect x="107" y="98" width="10" height="4" fill="#CC3333"/><rect x="108" y="102" width="8" height="8" fill="#F5D0A9"/><rect x="107" y="110" width="10" height="10" fill="#555555"/><rect x="108" y="120" width="4" height="5" fill="#555555"/><rect x="114" y="120" width="4" height="7" fill="#555555"/>
  <rect x="139" y="98" width="10" height="4" fill="#CC3333"/><rect x="140" y="102" width="8" height="8" fill="#F5D0A9"/><rect x="139" y="110" width="10" height="10" fill="#555555"/><rect x="140" y="120" width="4" height="6" fill="#555555"/><rect x="146" y="120" width="4" height="6" fill="#555555"/>
  <rect x="171" y="99" width="10" height="4" fill="#CC3333"/><rect x="172" y="103" width="8" height="8" fill="#F5D0A9"/><rect x="171" y="111" width="10" height="10" fill="#555555"/><rect x="172" y="121" width="4" height="5" fill="#555555"/><rect x="178" y="121" width="4" height="5" fill="#555555"/>
</svg>
